<?xml version="1.0" encoding="utf-8"?>
<!-- Generator: Adobe Illustrator 20.0.0, SVG Export Plug-In . SVG Version: 6.00 Build 0)  -->
<svg version="1.1" id="Layer_1" xmlns="http://www.w3.org/2000/svg" xmlns:xlink="http://www.w3.org/1999/xlink" x="0px" y="0px"
	 viewBox="0 0 818.24 818.24" style="enable-background:new 0 0 818.24 818.24;" xml:space="preserve">
<style type="text/css">
	.st0{fill:#1A1A18;}
	.st1{fill-rule:evenodd;clip-rule:evenodd;fill:#1A1A18;}
	.st2{fill:none;}
</style>
<g>
	<path class="st0" d="M604.64,817.24H213.6c-56.56,0-109.88-22.18-150.15-62.45C23.18,714.52,1,661.2,1,604.64V213.6
		c0-56.56,22.18-109.88,62.45-150.15C103.71,23.18,157.04,1,213.6,1h391.04c56.56,0,109.88,22.18,150.15,62.45
		c40.27,40.27,62.45,93.59,62.45,150.15v391.04c0,56.56-22.18,109.88-62.45,150.15C714.52,795.06,661.2,817.24,604.64,817.24z
		 M213.6,12.34c-53.53,0-104.01,21-142.13,59.12c-38.13,38.13-59.12,88.6-59.12,142.13v391.04c0,53.53,21,104.01,59.12,142.14
		c38.13,38.13,88.6,59.12,142.13,59.12h391.04c53.53,0,104.01-21,142.13-59.12c38.13-38.13,59.12-88.61,59.12-142.14V213.6
		c0-53.53-21-104.01-59.12-142.13c-38.13-38.13-88.61-59.12-142.13-59.12H213.6z"/>
</g>
<g>
	<rect class="st2" width="818.24" height="818.24"/>
</g>
</svg>